<svg xmlns="http://www.w3.org/2000/svg" width="1280" height="720" viewBox="0 0 1280 720" role="img" aria-label="Report builder flow">
  <rect width="1280" height="720" fill="#f6f8fb"/>
  <text x="70" y="82" font-family="Inter, Arial, sans-serif" font-size="34" font-weight="900" fill="#0f172a">Report Builder Experience</text>
  <text x="70" y="122" font-family="Inter, Arial, sans-serif" font-size="18" fill="#475569">Turn analysis results into report blocks and arrange them into a presentation-ready layout.</text>

  <rect x="70" y="170" width="320" height="430" rx="18" fill="#ffffff" stroke="#dbe7f2"/>
  <text x="100" y="218" font-family="Inter, Arial, sans-serif" font-size="16" font-weight="800" fill="#0f6b92">1. Analysis Blocks</text>
  <rect x="100" y="252" width="260" height="74" rx="12" fill="#f8fafc" stroke="#cfe4ee"/>
  <text x="122" y="283" font-family="Inter, Arial, sans-serif" font-size="14" font-weight="800" fill="#64748b">ANSWER</text>
  <text x="122" y="307" font-family="Inter, Arial, sans-serif" font-size="17" font-weight="900" fill="#0f172a">Low OEE Analysis</text>
  <rect x="100" y="350" width="260" height="74" rx="12" fill="#f8fafc" stroke="#cfe4ee"/>
  <text x="122" y="381" font-family="Inter, Arial, sans-serif" font-size="14" font-weight="800" fill="#64748b">CHART</text>
  <text x="122" y="405" font-family="Inter, Arial, sans-serif" font-size="17" font-weight="900" fill="#0f172a">Risk Distribution</text>
  <rect x="100" y="448" width="260" height="74" rx="12" fill="#f8fafc" stroke="#cfe4ee"/>
  <text x="122" y="479" font-family="Inter, Arial, sans-serif" font-size="14" font-weight="800" fill="#64748b">TABLE</text>
  <text x="122" y="503" font-family="Inter, Arial, sans-serif" font-size="17" font-weight="900" fill="#0f172a">Inspection Targets</text>

  <path d="M410 386 C468 386 468 386 526 386" stroke="#17799e" stroke-width="6" stroke-linecap="round" fill="none"/>
  <path d="M510 368 L532 386 L510 404" stroke="#17799e" stroke-width="6" stroke-linecap="round" stroke-linejoin="round" fill="none"/>

  <rect x="548" y="170" width="662" height="430" rx="18" fill="#ffffff" stroke="#dbe7f2"/>
  <text x="584" y="218" font-family="Inter, Arial, sans-serif" font-size="16" font-weight="800" fill="#0f6b92">2. Flexible Canvas</text>
  <rect x="584" y="248" width="590" height="52" rx="10" fill="#f8fafc" stroke="#cfe4ee"/>
  <text x="606" y="281" font-family="Inter, Arial, sans-serif" font-size="18" font-weight="900" fill="#0f172a">Manufacturing Insight AI Weekly Risk Report</text>
  <rect x="584" y="330" width="280" height="168" rx="14" fill="#f8fbff" stroke="#9fd3e6"/>
  <rect x="894" y="330" width="280" height="168" rx="14" fill="#f8fbff" stroke="#9fd3e6"/>
  <line x1="879" y1="330" x2="879" y2="498" stroke="#17799e" stroke-width="4" stroke-linecap="round"/>
  <circle cx="879" cy="414" r="18" fill="#ffffff" stroke="#17799e" stroke-width="3"/>
  <text x="606" y="372" font-family="Inter, Arial, sans-serif" font-size="14" font-weight="800" fill="#64748b">SUMMARY</text>
  <text x="606" y="402" font-family="Inter, Arial, sans-serif" font-size="22" font-weight="900" fill="#0f172a">Weekly Risk Summary</text>
  <text x="606" y="438" font-family="Inter, Arial, sans-serif" font-size="16" fill="#475569">Double-click to edit text</text>
  <text x="916" y="372" font-family="Inter, Arial, sans-serif" font-size="14" font-weight="800" fill="#64748b">CHART</text>
  <circle cx="991" cy="420" r="46" fill="none" stroke="#8ac873" stroke-width="24"/>
  <path d="M991 374 A46 46 0 0 1 1037 420" fill="none" stroke="#f6c85f" stroke-width="24"/>
  <path d="M991 374 A46 46 0 0 0 955 392" fill="none" stroke="#5675cf" stroke-width="24"/>
  <rect x="584" y="526" width="590" height="42" rx="10" fill="#eef7f2" stroke="#b7ddc8"/>
  <text x="606" y="553" font-family="Inter, Arial, sans-serif" font-size="16" font-weight="800" fill="#166534">Autosave · Reopen saved reports · Export DOCX</text>
</svg>